{"title":"Red 2 2013 DVDSCR [DVD source] XviD AC3 titler","uid":9112067,"size":1488780971,"categoryP":"video","categoryS":"movies","magnet":"?xt=urn:btih:169edea233b13707fb59274008c969e2a33c4de6&amp;dn=Red+2+2013+DVDSCR+%5BDVD+source%5D+XviD+AC3+titler&amp;tr=udp%3A%2F%2Ftracker.openbittorrent.com%3A80&amp;tr=udp%3A%2F%2Fopen.demonii.com%3A1337&amp;tr=udp%3A%2F%2Ftracker.coppersurfer.tk%3A6969&amp;tr=udp%3A%2F%2Fexodus.desync.com%3A6969","seeders":2,"leechers":0,"uploader":"movieZ.freak","files":5,"time":1382920157,"description":"SOURCE: DVD-R (VOBS)\n\n &lt;a href=&quot;\nhttp://www.imdb.com/title/tt1821694/&quot; rel=&quot;nofollow&quot; target=&quot;_NEW&quot;&gt;\nhttp://www.imdb.com/title/tt1821694/&lt;/a&gt;\n\n\n\n- SAMPLE: Yes\n\n- SUBTITLES: English\n\n- LANGUAGE: English\n\n\n\nSCREENSHOTS:\n------------- &lt;a href=&quot;\nhttp://someimage.com/3GJs&quot; rel=&quot;nofollow&quot; target=&quot;_NEW&quot;&gt;\nhttp://someimage.com/3GJs&lt;/a&gt;\n\n\n\nINFO:\n-----\n\n- No, this is NOT FAKE!!!\n\n\n- This is Thai source, I think.\nDVD source just like &quot;The Reluctant Fundamentalist&quot;\n\n\n- I found some nice video with bad zoomed weird AR, audio was too low, FPS unknown,...etc................and now looks like a really good screener.\n\n\n- As far as I know DVD / Bluray date is 26. November...\n\n &lt;a href=&quot;\nhttp://www.dvdsreleasedates.com/movies/5757/Red-2-2013.html&quot; rel=&quot;nofollow&quot; target=&quot;_NEW&quot;&gt;\nhttp://www.dvdsreleasedates.com/movies/5757/Red-2-2013.html&lt;/a&gt;\n\n\n- I don't like this kind of movies, but who cares. Well, my friends like it. :)\n\n\n- Full line audio, really small glitches on video at the bottom. Considering the source I think this is just fine.\n\n\n- Check the sample, take or leave it.\n\n\n- If you like it... SEEEEEEED!!!\n\n\n- If you don't like it I will stop seeding after upload.\n\n\n- Thank you and enjoy.\n\n\n\nCAST:\n------ &lt;a href=&quot;\nhttp://www.imdb.com/title/tt1821694/fullcredits?ref_=tt_cl_sm#cast&quot; rel=&quot;nofollow&quot; target=&quot;_NEW&quot;&gt;\nhttp://www.imdb.com/title/tt1821694/fullcredits?ref_=tt_cl_sm#cast&lt;/a&gt;\n\n\n\nPLOT:\n-------\nRetired C.I.A. agent Frank Moses reunites his unlikely team of elite operatives for a global quest to track down a missing portable nuclear device.\n\n\n\nGeneral\n-----------\nFormat : AVI\nFormat/Info : Audio Video Interleave\nFile size : 1.37 GiB\nDuration : 1h 51mn\nOverall bit rate : 1765 Kbps\nWriting application : VirtualDubMod 1.5.10.2\nWriting library : VirtualDub build 35488\n\n\nVideo\n---------\nFormat : MPEG-4 Visual\nFormat profile : Advanced Simple@L5\nFormat settings, BVOP : 1\nFormat settings, QPel : No\nFormat settings, GMC : No warppoints\nFormat settings, Matrix : Custom\nCodec ID : XVID\nCodec ID/Hint : XviD\nDuration : 1h 51mn\nBit rate : 1562 Kbps\nWidth : 640 pixels\nHeight : 368 pixels\nDisplay aspect ratio : 1.739\nFrame rate : 29.970 fps\nColor space : YUV\nBit depth : 8 bits\nScan type : Progressive\nCompression mode : Lossy\nBits/(Pixel*Frame) : 0.221\nStream size : 1.21 GiB (88%)\nWriting library : XviD 65\n\nAudio\n-------\nFormat : AC-3\nFormat/Info : Audio Coding 3\nMode extension : CM (complete main)\nFormat settings, Endianness : Big\nCodec ID : 2000\nDuration : 1h 51mn\nBit rate mode : Constant\nBit rate : 192 Kbps\nChannel(s) : 2 channels\nChannel positions : Front: L R\nSampling rate : 48.0 KHz\nBit depth : 16 bits\nCompression mode : Lossy\nStream size : 153 MiB (11%)\nAlignment : Aligned on interleaves\nInterleave, duration : 33 ms (1.00 video frame)\nInterleave, preload duration : 512 ms\nLanguage : English","torrent":{"xt":"urn:btih:169edea233b13707fb59274008c969e2a33c4de6","amp;dn":"Red+2+2013+DVDSCR+%5BDVD+source%5D+XviD+AC3+titler","amp;tr":["udp%3A%2F%2Ftracker.openbittorrent.com%3A80","udp%3A%2F%2Fopen.demonii.com%3A1337","udp%3A%2F%2Ftracker.coppersurfer.tk%3A6969","udp%3A%2F%2Fexodus.desync.com%3A6969"],"infoHash":"169edea233b13707fb59274008c969e2a33c4de6","infoHashBuffer":{"type":"Buffer","data":[22,158,222,162,51,177,55,7,251,89,39,64,8,201,105,226,163,60,77,230]},"announce":[],"urlList":[]}}